<svg xmlns="http://www.w3.org/2000/svg" id="svg9" width="71.716" height="84.029" version="1.1" viewBox="0 0 18.975 22.233"><defs id="defs5"><clipPath id="a"><path id="path2" d="M-1.512 108.768h215.446v134.56H-1.512Z" style="fill:#999;stroke-width:.026;stroke-linejoin:round;stroke-dasharray:.3175,.02645833;stroke-dashoffset:1"/></clipPath></defs><path id="path3728" d="M.112 21.197c.331-3.409 2.272-6.275 6.054-8.945.8-.565 1.455-1.076 1.455-1.136 0-.06-.642-.55-1.427-1.09-1.775-1.218-4.155-3.698-4.856-5.058C.71 3.752.238 2.207.1.926L0 0h1.697l.337 1.546c.678 3.117 2.164 4.772 7.75 8.638 2.105 1.456 4.429 3.184 5.164 3.84 2.146 1.915 3.6 4.642 3.884 7.282l.1.927h-.868c-.914 0-1.107-.254-1.113-1.469l-.003-.487-6.774-.058-6.774-.057.425-.926.425-.927h5.843c3.214 0 5.843-.08 5.843-.179 0-.098-.323-.586-.72-1.085l-.72-.907-4.082-.058-4.083-.06 1.196-.926c1.182-.916 1.215-.926 2.932-.932l1.736-.006L10.8 13.2l-1.396-.956-.828.575c-4.298 2.983-6.056 5.153-6.618 8.172l-.231 1.242H.01ZM11.336 9.988c-.361-.24-.657-.519-.657-.618 0-.099.341-.409.758-.688l.759-.508-1.827-.11c-1.744-.103-1.876-.148-2.927-.98L6.34 6.212l4.08-.059 4.08-.059.718-.944c.395-.52.718-1.008.718-1.086 0-.077-2.63-.14-5.843-.14H4.25l-.425-.927-.425-.926 6.717-.11 6.717-.108.17-.927c.17-.923.172-.926 1.07-.926h.9l-.12.926c-.328 2.495-1.315 4.527-3.144 6.471-.961 1.022-3.44 3.096-3.641 3.047-.042-.01-.371-.215-.733-.456z" style="fill:#000;stroke-width:.20994446"/></svg>