<?xml version="1.0" encoding="UTF-8" standalone="no"?>
<svg
   xmlns:dc="http://purl.org/dc/elements/1.1/"
   xmlns:cc="http://creativecommons.org/ns#"
   xmlns:rdf="http://www.w3.org/1999/02/22-rdf-syntax-ns#"
   xmlns:svg="http://www.w3.org/2000/svg"
   xmlns="http://www.w3.org/2000/svg"
   xmlns:sodipodi="http://sodipodi.sourceforge.net/DTD/sodipodi-0.dtd"
   xmlns:inkscape="http://www.inkscape.org/namespaces/inkscape"
   width="18.974779mm"
   height="22.232599mm"
   viewBox="0 0 18.974779 22.2326"
   version="1.1"
   id="svg9"
   sodipodi:docname="dna.svg"
   inkscape:version="0.92.3 (2405546, 2018-03-11)">
  <metadata
     id="metadata13">
    <rdf:RDF>
      <cc:Work
         rdf:about="">
        <dc:format>image/svg+xml</dc:format>
        <dc:type
           rdf:resource="http://purl.org/dc/dcmitype/StillImage" />
        <dc:title></dc:title>
      </cc:Work>
    </rdf:RDF>
  </metadata>
  <sodipodi:namedview
     pagecolor="#ffffff"
     bordercolor="#666666"
     borderopacity="1"
     objecttolerance="10"
     gridtolerance="10"
     guidetolerance="10"
     inkscape:pageopacity="0"
     inkscape:pageshadow="2"
     inkscape:window-width="1920"
     inkscape:window-height="1017"
     id="namedview11"
     showgrid="false"
     inkscape:zoom="1.1893044"
     inkscape:cx="18.445641"
     inkscape:cy="-172.73038"
     inkscape:window-x="1592"
     inkscape:window-y="32"
     inkscape:window-maximized="1"
     inkscape:current-layer="svg9" />
  <defs
     id="defs5">
    <clipPath
       id="a">
      <path
         d="m -1.512,108.768 h 215.446 v 134.56 H -1.512 Z"
         id="path2"
         inkscape:connector-curvature="0"
         style="fill:#999999;stroke-width:0.026;stroke-linejoin:round;stroke-dasharray:0.3175, 0.02645833;stroke-dashoffset:1" />
    </clipPath>
  </defs>
  <path
     style="fill:#000000;stroke-width:0.20994446"
     d="M 0.11192,21.197255 C 0.44341,17.788298 2.38352,14.921653 6.1659,12.25206 6.96603,11.68733 7.6209,11.176238 7.62116,11.116297 7.62136,11.056357 6.97904,10.565931 6.19363,10.026464 4.41921,8.8076861 2.03909,6.3284151 1.33776,4.9683231 0.71044,3.7517461 0.23721,2.20689 0.0996,0.926356 L 0,0 H 0.84856 1.69711 L 2.0338,1.546365 c 0.67856,3.1165071 2.16398,4.7717821 7.75088,8.637164 2.10459,1.456087 4.42823,3.18446 5.16365,3.84083 2.14569,1.91504 3.59986,4.641661 3.88359,7.281883 l 0.0996,0.926358 h -0.86715 c -0.9142,0 -1.1069,-0.254062 -1.11378,-1.468376 l -0.003,-0.487526 -6.774,-0.05739 -6.77399,-0.05739 0.42527,-0.926359 0.42528,-0.926358 h 5.84317 c 3.21375,0 5.84318,-0.08043 5.84318,-0.178733 0,-0.0983 -0.32398,-0.586716 -0.71997,-1.085363 l -0.71997,-0.906627 -4.08269,-0.05897 -4.0827,-0.05896 1.19567,-0.926358 c 1.1824,-0.916075 1.21494,-0.926422 2.93215,-0.932028 l 1.73649,-0.0057 -1.39606,-0.956093 -1.39606,-0.956096 -0.82834,0.574813 C 4.27718,15.801524 2.51924,17.972121 1.95679,20.990883 L 1.72564,22.2326 H 0.86842 0.0112 Z M 11.33629,9.9883411 c -0.36146,-0.240866 -0.65721,-0.518996 -0.65721,-0.618064 0,-0.09907 0.34125,-0.408816 0.75832,-0.688328 l 0.75832,-0.508202 -1.82656,-0.108983 C 8.62542,7.9607221 8.49269,7.9162501 7.44177,7.0839141 l -1.10082,-0.871867 4.08,-0.05897 4.08,-0.05897 0.7179,-0.944329 c 0.39484,-0.51938 0.71789,-1.007791 0.71789,-1.085354 0,-0.07757 -2.62943,-0.141027 -5.84318,-0.141027 H 4.25039 L 3.82505,2.997039 3.39971,2.07068 10.11693,1.961697 16.83414,1.852714 17.00399,0.926356 C 17.17336,0.002622 17.17639,0 18.07431,0 h 0.90047 l -0.12139,0.926359 c -0.32697,2.495053 -1.31397,4.5269931 -3.1433,6.4711351 -0.96128,1.021617 -3.4393,3.0951729 -3.64116,3.0468469 -0.0415,-0.0099 -0.37117,-0.215128 -0.73264,-0.4559969 z"
     id="path3728"
     inkscape:connector-curvature="0"
     sodipodi:nodetypes="ccscscccccsccccsccccccssccccccccccccccccsccscccccsscccccssccccc" />
</svg>
