<svg xmlns="http://www.w3.org/2000/svg" width="787.9" height="429.7" viewBox="0 0 208.5 113.7">
  <g fill="#ececec">
    <path d="M46 657v-98h733v197H46zm723 0v-87H57v175h712z" clip-path="url(#clipPath923)" transform="matrix(.27443 0 0 .28339 -9 -121)"/>
    <path d="m164 706-9-5-4-3 4-5c4-3 5-4 7-2 10 9 28 6 28-4 0-7-2-9-13-13-6-3-13-6-16-9-5-5-5-7-6-13-1-5 0-8 3-12 7-10 24-14 37-8 9 3 10 6 7 10-3 5-4 5-8 2-2-1-6-3-10-3-5-1-7-1-10 3-4 3-4 4-3 7s3 5 10 8c20 7 25 12 25 25 0 16-10 24-28 23l-14-1z" clip-path="url(#clipPath919)" transform="matrix(.27443 0 0 .28339 -9 -121)"/>
    <path d="M237 705c-6-3-10-10-12-20-4-17 5-34 19-37 7-1 18 0 22 3l4 2-3 5c-3 5-3 5-7 3-12-6-21 1-21 17 0 13 8 21 18 17 6-3 7-3 11 2l2 5-5 3c-8 3-21 3-28 0z" clip-path="url(#clipPath915)" transform="matrix(.27443 0 0 .28339 -9 -121)"/>
    <path d="M292 701v-5h15v-36l-8-1h-7v-10h30v47h14v10h-44z" clip-path="url(#clipPath911)" transform="matrix(.27443 0 0 .28339 -9 -121)"/>
    <path d="M138 794v-6h550v11H138z" clip-path="url(#clipPath907)" transform="matrix(.27443 0 0 .28339 -9 -121)"/>
    <path d="M307 634c-2-2-3-3-3-6-1-9 11-14 16-6 1 2 2 3 1 6 0 3 0 4-2 6s-3 2-6 2-4 0-6-2z" clip-path="url(#clipPath903)" transform="matrix(.27443 0 0 .28339 -9 -121)"/>
    <path d="M376 708c-7-2-13-5-17-11-9-11-10-39-2-52a32 32 0 0 1 47-9l2 2-2 2-4 5h-3c-3-2-8-4-12-4-8 0-12 4-15 14-2 5-2 6-2 16 1 15 3 21 9 24 2 2 9 1 12 0l2-1v-19h-8l-1-6-1-5h25v37l-5 3c-8 4-18 5-25 4z" clip-path="url(#clipPath899)" transform="matrix(.27443 0 0 .28339 -9 -121)"/>
    <path d="M424 702v-6h6l1-19v-18h-7v-10h18l1 5 1 6c0 2 2 1 3-1 2-4 6-9 9-10 4-2 11-2 15-1 2 0 2 2 0 13l-1 10-5 1h-4v-5l-1-5c-1-1-6 2-8 5-5 5-6 9-6 18v9c0 2 1 2 6 2h5v11h-33z" clip-path="url(#clipPath895)" transform="matrix(.27443 0 0 .28339 -9 -121)"/>
    <path d="M497 707c-10-3-14-16-9-26 2-3 4-5 10-8 3-1 4-2 13-2h9v-4c-1-8-7-10-19-8l-6 2-2-4-2-5-1-1 6-2c9-2 18-3 24-1s9 3 12 8l2 3v18l2 19c2 2 2 3 1 4l-1 5-1 3-3-1c-4 0-7-3-9-5l-1-2-3 3-6 4c-4 1-12 2-16 0zm19-12c3-3 4-5 4-10v-6l-6 1-8 1c-5 3-6 10-2 14 2 2 2 2 6 2l6-2z" clip-path="url(#clipPath891)" transform="matrix(.27443 0 0 .28339 -9 -121)"/>
    <path d="M566 707c-3-1-5-3-9-8-6-10-6-31 1-41 4-8 8-11 16-11 4 0 6 1 9 3l4 2v-29l5 1 7 1h3v82h-7c-6 0-6 0-6-2l-1-3c0-2 0-1-4 2-5 4-12 5-18 3zm16-12c5-3 5-4 5-19v-12l-2-3c-4-4-10-3-13 1-4 6-4 25-1 31 3 4 7 5 11 2z" clip-path="url(#clipPath887)" transform="matrix(.27443 0 0 .28339 -9 -121)"/>
    <path d="M642 708c-6-1-7-2-11-5s-5-4-7-9c-3-6-3-7-4-13l1-11c2-10 9-19 16-21 5-3 15-2 20 0s10 7 12 13c1 4 3 15 2 18v2h-35v3c1 4 2 7 6 10l8 1c4 0 6 0 9-2l5-1 3 4 2 4-4 3-9 3-14 1zm14-40c0-4-2-8-5-10-3-1-8-1-10 1-3 2-5 6-5 10v4h21z" clip-path="url(#clipPath883)" transform="matrix(.27443 0 0 .28339 -9 -121)"/>
    <path d="M482 528v-6h206v12H482z" clip-path="url(#clipPath879)" transform="matrix(.27443 0 0 .28339 -9 -121)"/>
    <path d="M378 522c1-12 10-25 26-35l2-2-3-3c-15-10-25-24-25-36 0-3 0-3 3-3h2l1 4c1 8 4 13 11 20l24 18c18 12 28 25 29 37v4h-6v-3l-1-4h-25l-25-1 1-3 2-2 22-1 22-1-3-4-2-4h-31l4-3c4-3 4-3 11-3l6-1-5-4-5-4-5 3-13 12c-7 7-10 11-11 18l-1 5h-5z" clip-path="url(#clipPath875)" transform="matrix(.27443 0 0 .28339 -9 -121)"/>
    <path d="M482 528v-4 7-3z" clip-path="url(#clipPath871)" transform="matrix(.27443 0 0 .28339 -9 -121)"/>
    <path d="m420 480-2-2 2-2 3-3h-6c-7 0-8-1-13-5l-2-2h30l3-4 3-4-23-1h-21l-2-2-1-4 25-1h25l1-3c0-4 0-4 3-4h3v5c-1 6-4 13-9 19-4 5-14 14-16 14l-3-1z" clip-path="url(#clipPath867)" transform="matrix(.27443 0 0 .28339 -9 -121)"/>
    <path d="M138 528v-6h206v12H138z" clip-path="url(#clipPath863)" transform="matrix(.27443 0 0 .28339 -9 -121)"/>
  </g>
</svg>