<svg xmlns="http://www.w3.org/2000/svg" width="787.919" height="429.686" viewBox="0 0 208.47 113.688"><g fill="#ececec"><path d="M45.972 657.454v-98.572h732.857v197.142H45.972zm722.857 0V570.31H57.401v174.285h711.428z" transform="matrix(.27443 0 0 .28339 -8.871 -120.585)" clip-path="url(#clipPath923)"/><path d="M163.662 705.727c-2.45-.79-6.307-2.921-8.572-4.737l-4.118-3.302 4.185-4.392c3.553-3.728 4.525-4.111 6.429-2.536 10.594 8.763 28.672 6.134 28.672-4.17 0-6.289-2.542-8.766-13.157-12.822-6.014-2.299-12.676-6.13-15.92-9.155-4.701-4.386-5.681-6.311-6.235-12.253-.533-5.722-.026-7.99 2.696-12.05 7.027-10.478 23.887-14.456 37.16-8.766 8.974 3.847 10.64 6.292 7.36 10.796-3.083 4.233-3.812 4.373-8.119 1.551-1.791-1.174-6.15-2.53-9.686-3.015-5.523-.757-7.016-.377-10.593 2.7-3.686 3.17-3.999 4.046-2.73 7.657 1.125 3.204 3.261 4.78 9.97 7.352 19.94 7.645 24.968 12.82 24.968 25.697 0 15.324-9.676 23.295-27.951 23.026-5.448-.08-11.91-.792-14.36-1.581z" transform="matrix(.27443 0 0 .28339 -8.871 -120.585)" clip-path="url(#clipPath919)"/><path d="M237.429 704.951c-6.428-3.23-10.89-10.03-12.885-19.636-3.56-17.149 5.564-34.667 19.407-37.264 7.324-1.374 17.957-.026 22.314 2.83l3.783 2.478-2.877 4.877c-2.812 4.766-2.97 4.828-6.967 2.761-12.156-6.286-21.382 1.262-21.37 17.482.01 12.855 7.986 20.143 17.747 16.215 6.844-2.753 7.807-2.549 10.933 2.326l2.928 4.567-5.75 2.933c-7.318 3.734-20.282 3.939-27.263.431z" transform="matrix(.27443 0 0 .28339 -8.871 -120.585)" clip-path="url(#clipPath915)"/><path d="M291.686 701.025v-5h15.8l-.4-18.214-.4-18.215-7.5-.431-7.5-.432V648.882h30V696.024h14.286v10h-44.286z" transform="matrix(.27443 0 0 .28339 -8.871 -120.585)" clip-path="url(#clipPath911)"/><path d="M137.903 793.629v-5.358h550v10.715h-550z" transform="matrix(.27443 0 0 .28339 -8.871 -120.585)" clip-path="url(#clipPath907)"/><path d="M306.75 633.783c-2.037-1.868-2.636-3.024-2.934-5.667-1.07-9.489 11.382-14.474 16.295-6.524 1.238 2.003 1.47 3.25 1.2 6.485-.28 3.382-.684 4.321-2.595 6.029-1.846 1.649-2.924 2.023-5.835 2.023-3.04 0-3.95-.349-6.13-2.346z" transform="matrix(.27443 0 0 .28339 -8.871 -120.585)" clip-path="url(#clipPath903)"/><path d="M376.117 707.808c-7.604-1.583-12.71-4.672-17.132-10.362-8.56-11.018-9.671-39.392-2.063-52.684 8.148-14.237 26.455-20.1 40.713-13.04 2.406 1.191 5.254 2.98 6.328 3.977l1.954 1.81-2.15 2.703c-1.183 1.486-2.983 3.478-4 4.427-1.712 1.597-1.944 1.64-3.12.575-2.506-2.268-7.616-4.054-11.601-4.054-7.964 0-12.468 3.903-15.522 13.45-1.607 5.023-1.718 6.282-1.43 16.161.432 14.828 2.707 21.328 8.523 24.354 2.644 1.376 9.254 1.268 12.333-.2l2.524-1.204v-19.02H383.1l-1.066-5.358-1.066-5.357h25.506v37.208l-5.893 2.802c-7.536 3.583-17.85 5.19-24.464 3.812z" transform="matrix(.27443 0 0 .28339 -8.871 -120.585)" clip-path="url(#clipPath899)"/><path d="M423.617 701.525v-5.318l3.393-.218 3.393-.218.19-18.392.191-18.393h-7.167v-10h18.416l1.15 5.087c.631 2.799 1.148 5.53 1.148 6.072 0 1.71 1.877 1.064 2.802-.966 1.936-4.249 5.876-8.688 9.091-10.245 3.366-1.63 10.849-2.19 14.357-1.076 1.96.622 2.005 1.776.53 13.6-.586 4.7-1.065 8.959-1.065 9.465 0 .656-1.332.92-4.643.92h-4.643v-4.958c0-2.727-.268-5.123-.596-5.326-1.123-.694-6.544 2.574-8.59 5.18-4.076 5.192-5.303 9.053-5.65 17.784-.175 4.42-.117 8.84.13 9.821.427 1.704.688 1.785 5.79 1.785h5.344v10.714h-33.571z" transform="matrix(.27443 0 0 .28339 -8.871 -120.585)" clip-path="url(#clipPath895)"/><path d="M497.188 707.148c-9.99-3.573-14.2-15.73-8.967-25.888 1.733-3.363 3.744-5.045 9.678-8.094 2.77-1.423 4.523-1.688 12.768-1.929l9.557-.28-.41-3.465c-.961-8.113-6.78-10.661-18.618-8.153-2.707.573-5.46 1.213-6.118 1.422-.94.299-1.47-.5-2.48-3.733-.706-2.263-1.615-4.523-2.02-5.024-.405-.5-.61-1.016-.456-1.147.155-.13 2.98-.954 6.28-1.832 8.377-2.228 17.729-2.675 23.644-1.131 6.221 1.623 8.708 3.282 11.545 7.7l2.383 3.71.357 17.281c.34 16.45.434 17.385 1.946 19.43 1.285 1.738 1.463 2.534.928 4.167-.364 1.11-1.001 3.35-1.417 4.976l-.756 2.959-3.007-.676c-3.697-.83-7.395-3.049-8.892-5.334l-1.125-1.717-3.096 2.537c-1.702 1.395-4.293 3.037-5.757 3.649-3.99 1.667-12.092 1.957-15.967.572zm19.115-12.486c3.06-2.453 3.743-4.296 3.743-10.096v-5.067l-5.958.371c-3.276.205-6.732.783-7.678 1.286-4.96 2.633-6.147 9.83-2.306 13.974 1.576 1.7 2.133 1.85 5.88 1.58 3.013-.219 4.732-.776 6.319-2.048z" transform="matrix(.27443 0 0 .28339 -8.871 -120.585)" clip-path="url(#clipPath891)"/><path d="M566.228 707.23c-3.54-1.262-5.7-3.333-8.8-8.44-6.056-9.967-5.99-31.158.127-41.233 4.614-7.6 8.918-10.31 16.42-10.338 4.346-.016 5.536.285 9.106 2.309l4.107 2.327v-28.53l4.822.415c2.652.228 5.946.633 7.321.898l2.5.483.185 40.861.184 40.86h-6.791c-6.564 0-6.792-.053-6.802-1.606-.005-.884-.202-2.327-.438-3.207-.412-1.535-.572-1.473-3.895 1.516-5.02 4.512-11.826 5.902-18.046 3.685zm16.144-12.193c4.47-3.038 4.816-4.382 4.816-18.714V663.59l-2.058-2.254c-3.802-4.162-10.367-3.71-13.403.922-3.799 5.798-4.011 24.37-.35 30.655 2.435 4.181 6.743 5.013 10.995 2.124z" transform="matrix(.27443 0 0 .28339 -8.871 -120.585)" clip-path="url(#clipPath887)"/><path d="M641.831 707.777c-5.364-1.233-7.153-2.031-10.946-4.882-3.617-2.719-4.723-4.129-7.262-9.255-2.737-5.524-3.03-6.653-3.381-13.042-.229-4.147-.05-8.562.44-10.842 2.097-9.784 8.825-18.76 15.909-21.228 5.872-2.046 15.49-1.779 20.597.572 5.033 2.317 9.373 7.055 11.383 12.427 1.747 4.668 3.194 15.22 2.514 18.32l-.439 1.996h-35.074l.384 2.678c.669 4.66 2.509 7.915 5.652 9.995 2.555 1.691 3.702 1.97 8.108 1.97 4.202 0 5.925-.38 9.508-2.092 2.407-1.15 4.494-1.954 4.637-1.786.144.169 1.39 2.094 2.77 4.279l2.51 3.972-4.213 2.728c-2.563 1.66-5.953 3.102-8.655 3.681-4.307.924-11.53 1.179-14.442.51zm14.463-39.397c-.419-4.618-2.675-8.835-5.39-10.074-2.572-1.174-7.421-.88-9.844.598-2.671 1.629-4.713 5.694-5.154 10.26l-.328 3.393h21.095z" transform="matrix(.27443 0 0 .28339 -8.871 -120.585)" clip-path="url(#clipPath883)"/><path d="M482.188 527.914v-6.071h205.715v12.143H482.188z" transform="matrix(.27443 0 0 .28339 -8.871 -120.585)" clip-path="url(#clipPath879)"/><path d="M378.084 521.664c1.005-11.893 10.257-24.44 25.427-34.478 1.63-1.079 2.963-2.197 2.963-2.486 0-.288-1.34-1.411-2.977-2.495-15.755-10.426-25.594-24.353-25.594-36.226 0-2.672.037-2.708 2.79-2.708h2.79l.509 3.75c1.022 7.533 4.11 13.142 11.231 20.405 3.29 3.355 11.642 9.528 24.01 17.746 17.425 11.578 27.544 24.5 28.499 36.393l.366 4.564h-5.775l-.492-3.572-.49-3.571H416.05c-19.757 0-25.29-.196-25.287-.893 0-.491.636-1.933 1.411-3.204l1.41-2.311 21.98-.189c17.391-.15 21.982-.382 21.982-1.112 0-.507-1.125-2.497-2.5-4.42l-2.5-3.499-15.358-.222-15.357-.222 4.224-3.035c4.214-3.03 4.237-3.036 10.595-3.036 4.774 0 6.3-.224 6.085-.893-.158-.491-2.498-2.4-5.2-4.243l-4.911-3.351-4.325 3.025c-6.474 4.527-7.401 5.312-13.674 11.577-6.582 6.574-9.25 11.286-10.433 18.425l-.786 4.746h-5.699z" transform="matrix(.27443 0 0 .28339 -8.871 -120.585)" clip-path="url(#clipPath875)"/><path d="M481.728 527.914c-.002-3.535.118-5.072.268-3.414.15 1.658.152 4.55.004 6.429-.147 1.877-.27.521-.272-3.015z" transform="matrix(.27443 0 0 .28339 -8.871 -120.585)" clip-path="url(#clipPath871)"/><path d="M419.734 479.608l-1.933-1.52 2.55-2.103c1.404-1.157 2.552-2.401 2.552-2.766 0-.364-2.822-.662-6.27-.662-6.63 0-7.287-.238-12.148-4.413l-2.346-2.015h29.878l2.976-3.943c1.637-2.168 2.782-4.257 2.544-4.643-.268-.433-8.741-.7-22.187-.7h-21.754l-1.415-2.322c-.779-1.276-1.417-2.719-1.418-3.205-.002-.682 5.746-.926 25.169-1.071l25.172-.188.62-3.393c.618-3.385.626-3.393 3.502-3.393h2.883l-.446 4.78c-.55 5.892-3.858 13.085-8.79 19.114-4.272 5.223-14.261 13.964-15.959 13.964-.686 0-2.117-.685-3.18-1.521z" transform="matrix(.27443 0 0 .28339 -8.871 -120.585)" clip-path="url(#clipPath867)"/><path d="M137.903 527.914v-6.071h205.714v12.143H137.903z" transform="matrix(.27443 0 0 .28339 -8.871 -120.585)" clip-path="url(#clipPath863)"/></g></svg>