<?xml version="1.0" encoding="UTF-8" standalone="no"?>
<!-- Created with Inkscape (http://www.inkscape.org/) -->

<svg
   xmlns:dc="http://purl.org/dc/elements/1.1/"
   xmlns:cc="http://creativecommons.org/ns#"
   xmlns:rdf="http://www.w3.org/1999/02/22-rdf-syntax-ns#"
   xmlns:svg="http://www.w3.org/2000/svg"
   xmlns="http://www.w3.org/2000/svg"
   xmlns:xlink="http://www.w3.org/1999/xlink"
   xmlns:sodipodi="http://sodipodi.sourceforge.net/DTD/sodipodi-0.dtd"
   xmlns:inkscape="http://www.inkscape.org/namespaces/inkscape"
   width="208.47021mm"
   height="113.68774mm"
   viewBox="0 0 208.47021 113.68774"
   version="1.1"
   id="svg8"
   inkscape:version="0.92.3 (2405546, 2018-03-11)"
   sodipodi:docname="logo_transparent.svg">
  <g
     inkscape:label="Layer 1"
     inkscape:groupmode="layer"
     id="layer1"
     transform="translate(-0.53453853,2.8764213)">
    <path
       style="opacity:1;fill:#ececec;fill-opacity:1;stroke-width:0.14285715;stroke-linejoin:round;stroke-miterlimit:4;stroke-dasharray:1.71428572, 0.14285714;stroke-dashoffset:0.99999988"
       d="M 45.971963,657.45351 V 558.88209 H 412.40053 778.82911 v 98.57142 98.57143 H 412.40053 45.971963 Z m 722.857147,0 V 570.31066 H 413.11482 57.400535 v 87.14285 87.14286 H 413.11482 768.82911 Z"
       id="path827"
       inkscape:connector-curvature="0"
       transform="matrix(0.27443484,0,0,0.28338621,-8.3365346,-123.46134)"
       clip-path="url(#clipPath923)" />
    <path
       style="opacity:1;fill:#ececec;fill-opacity:1;stroke-width:0.14285715;stroke-linejoin:round;stroke-miterlimit:4;stroke-dasharray:1.71428572, 0.14285714;stroke-dashoffset:0.99999988"
       d="m 163.66159,705.72683 c -2.44927,-0.78925 -6.30641,-2.92091 -8.57142,-4.73702 l -4.11821,-3.30201 4.18534,-4.39189 c 3.55226,-3.72757 4.52466,-4.11121 6.42858,-2.53623 10.59371,8.76341 28.6718,6.13415 28.6718,-4.17002 0,-6.28859 -2.54204,-8.76595 -13.15681,-12.82208 -6.01418,-2.29815 -12.67544,-6.12887 -15.91949,-9.15489 -4.70187,-4.38586 -5.6814,-6.31064 -6.23538,-12.25264 -0.5335,-5.72229 -0.026,-7.99068 2.6959,-12.04939 7.02734,-10.47879 23.88712,-14.45622 37.16043,-8.76662 8.97348,3.84649 10.64017,6.29157 7.35929,10.79627 -3.08311,4.23314 -3.812,4.37236 -8.11844,1.55068 -1.79125,-1.17368 -6.15009,-2.53052 -9.6863,-3.01521 -5.52331,-0.75706 -7.01621,-0.37658 -10.59241,2.69954 -3.68688,3.17131 -3.99918,4.04705 -2.73097,7.65807 1.12515,3.20369 3.26148,4.77876 9.97092,7.35136 19.9399,7.64553 24.96754,12.82009 24.96754,25.69712 0,15.32417 -9.67562,23.29486 -27.95103,23.0258 -5.44836,-0.0802 -11.91006,-0.79159 -14.35934,-1.58084 z"
       id="path829"
       inkscape:connector-curvature="0"
       transform="matrix(0.27443484,0,0,0.28338621,-8.3365346,-123.46134)"
       clip-path="url(#clipPath919)" />
    <path
       style="opacity:1;fill:#ececec;fill-opacity:1;stroke-width:0.14285715;stroke-linejoin:round;stroke-miterlimit:4;stroke-dasharray:1.71428572, 0.14285714;stroke-dashoffset:0.99999988"
       d="m 237.42901,704.95129 c -6.42795,-3.22951 -10.89057,-10.03053 -12.88471,-19.63626 -3.56006,-17.1487 5.56357,-34.66737 19.40712,-37.26443 7.3233,-1.37386 17.95626,-0.0253 22.31402,2.82999 l 3.78292,2.47866 -2.87719,4.87647 c -2.81213,4.76622 -2.96967,4.82865 -6.96726,2.76142 -12.15544,-6.28583 -21.38214,1.26235 -21.36946,17.48192 0.01,12.85486 7.98589,20.14256 17.74659,16.21544 6.84437,-2.75375 7.80669,-2.54903 10.93257,2.32583 l 2.92835,4.56682 -5.74952,2.93318 c -7.31821,3.73348 -20.2823,3.93841 -27.26343,0.43096 z"
       id="path831"
       inkscape:connector-curvature="0"
       transform="matrix(0.27443484,0,0,0.28338621,-8.3365346,-123.46134)"
       clip-path="url(#clipPath915)" />
    <path
       style="opacity:1;fill:#ececec;fill-opacity:1;stroke-width:0.14285715;stroke-linejoin:round;stroke-miterlimit:4;stroke-dasharray:1.71428572, 0.14285714;stroke-dashoffset:0.99999988"
       d="m 291.68625,701.02494 v -5 h 7.89982 7.89983 l -0.39983,-18.21428 -0.39982,-18.21429 -7.5,-0.4318 -7.5,-0.4318 v -4.92534 -4.92534 h 15 15 v 23.57142 23.57143 h 7.14286 7.14285 v 5 5 h -22.14285 -22.14286 z"
       id="path833"
       inkscape:connector-curvature="0"
       transform="matrix(0.27443484,0,0,0.28338621,-8.3365346,-123.46134)"
       clip-path="url(#clipPath911)" />
    <path
       style="opacity:1;fill:#ececec;fill-opacity:1;stroke-width:0.07142857;stroke-linejoin:round;stroke-miterlimit:4;stroke-dasharray:0.85714286, 0.07142857;stroke-dashoffset:0.99999988"
       d="m 137.90275,793.62863 v -5.35714 h 275 275 v 5.35714 5.35715 h -275 -275 z"
       id="path835"
       inkscape:connector-curvature="0"
       transform="matrix(0.27443484,0,0,0.28338621,-8.3365346,-123.46134)"
       clip-path="url(#clipPath907)" />
    <path
       style="opacity:1;fill:#ececec;fill-opacity:1;stroke-width:0.07142857;stroke-linejoin:round;stroke-miterlimit:4;stroke-dasharray:0.85714286, 0.07142857;stroke-dashoffset:0.99999988"
       d="m 306.75045,633.78267 c -2.03779,-1.8675 -2.63623,-3.02327 -2.9342,-5.66689 -1.06949,-9.48844 11.38189,-14.47338 16.29503,-6.52375 1.23791,2.00299 1.46878,3.25019 1.20049,6.48538 -0.28042,3.38146 -0.68488,4.32064 -2.59615,6.02836 -1.84584,1.64926 -2.92345,2.02286 -5.83463,2.02286 -3.04028,0 -3.95088,-0.34846 -6.13054,-2.34596 z"
       id="path837"
       inkscape:connector-curvature="0"
       transform="matrix(0.27443484,0,0,0.28338621,-8.3365346,-123.46134)"
       clip-path="url(#clipPath903)" />
    <path
       style="opacity:1;fill:#ececec;fill-opacity:1;stroke-width:0.07142857;stroke-linejoin:round;stroke-miterlimit:4;stroke-dasharray:0.85714286, 0.07142857;stroke-dashoffset:0.99999988"
       d="m 376.11704,707.80826 c -7.60431,-1.58368 -12.71087,-4.67251 -17.13162,-10.36249 -8.56034,-11.01808 -9.67163,-39.39134 -2.06347,-52.68416 8.14829,-14.23652 26.45456,-20.09981 40.71267,-13.0398 2.4061,1.19139 5.25404,2.9811 6.32876,3.97712 l 1.95404,1.81094 -2.15054,2.70224 c -1.18279,1.48623 -2.98273,3.47832 -3.99985,4.42686 -1.71206,1.59662 -1.94359,1.6393 -3.11964,0.57499 -2.5064,-2.26827 -7.61676,-4.05395 -11.60178,-4.05395 -7.9634,0 -12.46807,3.90343 -15.52191,13.45024 -1.60668,5.02276 -1.71803,6.28136 -1.42982,16.16124 0.43255,14.82792 2.7073,21.32746 8.5234,24.35358 2.64377,1.37555 9.25331,1.26828 12.33267,-0.20016 l 2.52423,-1.20372 v -9.51057 -9.51056 h -4.18703 -4.18702 l -1.06597,-5.35714 -1.06598,-5.35714 h 12.753 12.753 v 18.60434 18.60434 l -5.89286,2.80157 c -7.53597,3.58274 -17.84937,5.18986 -24.46428,3.81223 z"
       id="path839"
       inkscape:connector-curvature="0"
       transform="matrix(0.27443484,0,0,0.28338621,-8.3365346,-123.46134)"
       clip-path="url(#clipPath899)" />
    <path
       style="opacity:1;fill:#ececec;fill-opacity:1;stroke-width:0.07142857;stroke-linejoin:round;stroke-miterlimit:4;stroke-dasharray:0.85714286, 0.07142857;stroke-dashoffset:0.99999988"
       d="m 423.61704,701.52491 v -5.318 l 3.39285,-0.21771 3.39286,-0.21771 0.19063,-18.39286 0.19063,-18.39285 h -3.58349 -3.58348 v -5 -5 h 9.20821 9.20821 l 1.14893,5.08761 c 0.63191,2.79819 1.14893,5.53034 1.14893,6.07143 0,1.7109 1.87695,1.06415 2.80167,-0.96539 1.93599,-4.24904 5.87563,-8.68889 9.09122,-10.24554 3.36561,-1.62926 10.84837,-2.19024 14.35711,-1.07634 1.9599,0.62219 2.00488,1.77649 0.53001,13.60108 -0.58615,4.69935 -1.06572,8.95828 -1.06572,9.46428 0,0.65613 -1.33169,0.92001 -4.64286,0.92001 h -4.64286 v -4.95785 c 0,-2.72681 -0.26814,-5.12356 -0.59587,-5.32611 -1.12336,-0.69428 -6.54372,2.57425 -8.58908,5.1793 -4.07709,5.19274 -5.3036,9.05326 -5.65023,17.78445 -0.17549,4.42031 -0.11753,8.83995 0.12881,9.82143 0.42772,1.7042 0.68832,1.78449 5.79141,1.78449 h 5.34354 v 5.35715 5.35714 h -16.78572 -16.78571 z"
       id="path841"
       inkscape:connector-curvature="0"
       transform="matrix(0.27443484,0,0,0.28338621,-8.3365346,-123.46134)"
       clip-path="url(#clipPath895)" />
    <path
       style="opacity:1;fill:#ececec;fill-opacity:1;stroke-width:0.07142857;stroke-linejoin:round;stroke-miterlimit:4;stroke-dasharray:0.85714286, 0.07142857;stroke-dashoffset:0.99999988"
       d="m 497.18847,707.14772 c -9.98965,-3.57268 -14.20044,-15.72909 -8.96702,-25.88746 1.73276,-3.36341 3.74365,-5.0453 9.67747,-8.09417 2.76953,-1.42302 4.52307,-1.68793 12.76796,-1.92886 l 9.5575,-0.27929 -0.41054,-3.46632 c -0.96083,-8.11271 -6.7798,-10.66074 -18.61834,-8.15266 -2.70685,0.57347 -5.45978,1.2135 -6.11763,1.42229 -0.94027,0.29843 -1.47069,-0.50011 -2.48004,-3.73364 -0.70618,-2.26229 -1.61512,-4.52282 -2.01988,-5.02338 -0.40475,-0.50057 -0.60975,-1.01668 -0.45556,-1.14693 0.1542,-0.13024 2.97966,-0.95464 6.27879,-1.832 8.37746,-2.22785 17.72934,-2.67543 23.64443,-1.1316 6.22144,1.62378 8.70873,3.28267 11.54569,7.70038 l 2.38288,3.7106 0.35714,17.28079 c 0.33998,16.44999 0.43353,17.38409 1.94589,19.42959 1.28522,1.73829 1.46247,2.53436 0.92778,4.16691 -0.36353,1.10995 -1.00111,3.34932 -1.41685,4.97638 l -0.7559,2.95828 -3.00771,-0.67578 c -3.69623,-0.83049 -7.39406,-3.04878 -8.89125,-5.33377 l -1.12508,-1.71711 -3.09583,2.53681 c -1.70271,1.39524 -4.29341,3.03717 -5.75711,3.64875 -3.99067,1.6674 -12.0926,1.95775 -15.96679,0.57219 z m 19.11429,-12.48571 c 3.05986,-2.4535 3.74285,-4.29583 3.74285,-10.09624 v -5.06708 l -5.9574,0.37167 c -3.27657,0.20442 -6.73193,0.78288 -7.67857,1.28547 -4.95898,2.63281 -6.14641,9.82969 -2.3056,13.97399 1.57604,1.70058 2.13336,1.85026 5.88009,1.57925 3.01328,-0.21797 4.73185,-0.77473 6.31863,-2.04706 z"
       id="path843"
       inkscape:connector-curvature="0"
       transform="matrix(0.27443484,0,0,0.28338621,-8.3365346,-123.46134)"
       clip-path="url(#clipPath891)" />
    <path
       style="opacity:1;fill:#ececec;fill-opacity:1;stroke-width:0.07142857;stroke-linejoin:round;stroke-miterlimit:4;stroke-dasharray:0.85714286, 0.07142857;stroke-dashoffset:0.99999988"
       d="m 566.22789,707.2296 c -3.53922,-1.26191 -5.69906,-3.33292 -8.80067,-8.43871 -6.05509,-9.96775 -5.98961,-31.15883 0.12741,-41.23369 4.61445,-7.60009 8.91842,-10.31001 16.41955,-10.33829 4.34654,-0.0164 5.53677,0.28534 9.10714,2.30869 l 4.10715,2.32753 v -14.26494 -14.26495 l 4.82142,0.41498 c 2.65179,0.22824 5.94643,0.63229 7.32143,0.89788 l 2.5,0.4829 0.18442,40.86096 0.18442,40.86096 h -6.79156 c -6.56402,0 -6.79189,-0.0539 -6.80132,-1.60714 -0.005,-0.88393 -0.20273,-2.32719 -0.4386,-3.20724 -0.41125,-1.53439 -0.57119,-1.47212 -3.89512,1.51638 -5.01885,4.51238 -11.82599,5.9023 -18.04567,3.68468 z m 16.14416,-12.19288 c 4.4705,-3.03778 4.81642,-4.3818 4.81642,-18.71343 v -12.73343 l -2.0586,-2.25387 c -3.8018,-4.16244 -10.36679,-3.7106 -13.40248,0.92244 -3.79892,5.79789 -4.01148,24.36988 -0.35085,30.65432 2.43556,4.18126 6.74335,5.01338 10.99551,2.12397 z"
       id="path845"
       inkscape:connector-curvature="0"
       transform="matrix(0.27443484,0,0,0.28338621,-8.3365346,-123.46134)"
       clip-path="url(#clipPath887)" />
    <path
       style="opacity:1;fill:#ececec;fill-opacity:1;stroke-width:0.07142857;stroke-linejoin:round;stroke-miterlimit:4;stroke-dasharray:0.85714286, 0.07142857;stroke-dashoffset:0.99999988"
       d="m 641.83132,707.77727 c -5.3644,-1.23354 -7.15365,-2.03162 -10.94611,-4.88247 -3.61675,-2.71876 -4.72322,-4.12875 -7.2625,-9.25472 -2.73627,-5.52362 -3.02907,-6.65303 -3.38113,-13.0422 -0.22848,-4.14641 -0.0494,-8.56163 0.43966,-10.84223 2.09824,-9.78373 8.82547,-18.75971 15.90945,-21.22757 5.87248,-2.04581 15.49043,-1.77862 20.59778,0.57221 5.03265,2.31646 9.37264,7.05449 11.38259,12.42655 1.74646,4.66786 3.1944,15.22099 2.51364,18.32046 l -0.43831,1.99562 h -17.5373 -17.53729 l 0.38423,2.67857 c 0.66847,4.66009 2.50901,7.91486 5.65195,9.99476 2.55518,1.69093 3.70207,1.96953 8.10806,1.96953 4.2017,0 5.92514,-0.37914 9.50814,-2.09165 2.40693,-1.15041 4.49366,-1.95398 4.63719,-1.78572 0.14353,0.16827 1.3902,2.09351 2.77039,4.27833 l 2.50942,3.97239 -4.21323,2.728 c -2.56265,1.65929 -5.95329,3.10139 -8.65492,3.68109 -4.30726,0.92424 -11.52914,1.1788 -14.44171,0.50905 z m 14.46248,-39.39749 c -0.41874,-4.61793 -2.67452,-8.83471 -5.38894,-10.07368 -2.57239,-1.17413 -7.42195,-0.87955 -9.84499,0.59802 -2.67111,1.62884 -4.71294,5.69354 -5.15402,10.26023 l -0.32771,3.39285 h 10.54722 10.54723 z"
       id="path847"
       inkscape:connector-curvature="0"
       transform="matrix(0.27443484,0,0,0.28338621,-8.3365346,-123.46134)"
       clip-path="url(#clipPath883)" />
    <path
       style="opacity:1;fill:#ececec;fill-opacity:1;stroke-width:0.07142857;stroke-linejoin:round;stroke-miterlimit:4;stroke-dasharray:0.85714286, 0.07142857;stroke-dashoffset:0.99999988"
       d="m 482.18847,527.91435 v -6.07143 h 102.85714 102.85714 v 6.07143 6.07143 H 585.04561 482.18847 Z"
       id="path849"
       inkscape:connector-curvature="0"
       transform="matrix(0.27443484,0,0,0.28338621,-8.3365346,-123.46134)"
       clip-path="url(#clipPath879)" />
    <path
       style="opacity:1;fill:#ececec;fill-opacity:1;stroke-width:0.07142857;stroke-linejoin:round;stroke-miterlimit:4;stroke-dasharray:0.85714286, 0.07142857;stroke-dashoffset:0.99999988"
       d="m 378.08418,521.66435 c 1.00443,-11.89379 10.2564,-24.43959 25.42646,-34.47867 1.62995,-1.07864 2.96354,-2.19717 2.96354,-2.48562 0,-0.28845 -1.33979,-1.41108 -2.97731,-2.49474 -15.75449,-10.42583 -25.59412,-24.35316 -25.59412,-36.22676 0,-2.67122 0.0369,-2.70707 2.79012,-2.70707 h 2.79011 l 0.5088,3.75 c 1.02203,7.53271 4.10928,13.1414 11.23128,20.40416 3.29035,3.35538 11.6418,9.52805 24.00965,17.74587 17.42561,11.57845 27.54464,24.50038 28.4993,36.39343 l 0.36633,4.56368 h -2.88791 -2.88791 l -0.4912,-3.57143 -0.49119,-3.57142 h -25.29012 c -19.75733,0 -25.28953,-0.19534 -25.28745,-0.89286 10e-4,-0.49107 0.63677,-1.93284 1.41178,-3.20394 l 1.40911,-2.31108 21.98108,-0.18892 c 17.39084,-0.14947 21.98108,-0.38161 21.98108,-1.11166 0,-0.50751 -1.125,-2.4969 -2.5,-4.42087 l -2.5,-3.49813 -15.35714,-0.22199 -15.35715,-0.22198 4.22342,-3.03572 c 4.21398,-3.02892 4.23768,-3.03571 10.59524,-3.03571 4.77444,0 6.29982,-0.22384 6.08462,-0.89286 -0.15796,-0.49107 -2.49747,-2.40065 -5.19891,-4.2435 l -4.91171,-3.35065 -4.3249,3.02464 c -6.47401,4.52762 -7.40127,5.31274 -13.6737,11.57755 -6.58218,6.57418 -9.25016,11.2858 -10.43313,18.42478 l -0.7864,4.74575 h -2.84934 -2.84935 z"
       id="path851"
       inkscape:connector-curvature="0"
       transform="matrix(0.27443484,0,0,0.28338621,-8.3365346,-123.46134)"
       clip-path="url(#clipPath875)" />
    <path
       style="opacity:1;fill:#ececec;fill-opacity:1;stroke-width:0.07142857;stroke-linejoin:round;stroke-miterlimit:4;stroke-dasharray:0.85714286, 0.07142857;stroke-dashoffset:0.99999988"
       d="m 481.72772,527.91435 c -0.002,-3.53572 0.11861,-5.0722 0.26841,-3.41441 0.1498,1.65779 0.15158,4.55064 0.004,6.42857 -0.14763,1.87792 -0.27019,0.52155 -0.27237,-3.01416 z"
       id="path853"
       inkscape:connector-curvature="0"
       transform="matrix(0.27443484,0,0,0.28338621,-8.3365346,-123.46134)"
       clip-path="url(#clipPath871)" />
    <path
       style="opacity:1;fill:#ececec;fill-opacity:1;stroke-width:0.07142857;stroke-linejoin:round;stroke-miterlimit:4;stroke-dasharray:0.85714286, 0.07142857;stroke-dashoffset:0.99999988"
       d="m 419.7337,479.60803 -1.93314,-1.52061 2.5511,-2.10282 c 1.4031,-1.15656 2.55109,-2.40086 2.55109,-2.76511 0,-0.36426 -2.82134,-0.66229 -6.26964,-0.66229 -6.63024,0 -7.28719,-0.23867 -12.14807,-4.41345 l -2.34628,-2.01512 h 14.93903 14.93904 l 2.97656,-3.94242 c 1.6371,-2.16833 2.78175,-4.25762 2.54366,-4.64286 -0.26756,-0.43291 -8.74149,-0.70043 -22.18695,-0.70043 h -21.75406 l -1.4154,-2.32143 c -0.77848,-1.27679 -1.41661,-2.7191 -1.41808,-3.20515 -0.002,-0.68189 5.7461,-0.92659 25.16922,-1.07143 l 25.17188,-0.18771 0.61967,-3.39285 c 0.61822,-3.3849 0.62644,-3.39286 3.50284,-3.39286 h 2.88316 l -0.44639,4.78028 c -0.55009,5.89077 -3.8582,13.08469 -8.78902,19.11286 -4.27268,5.22356 -14.26217,13.964 -15.95953,13.964 -0.68616,0 -2.11747,-0.68427 -3.18069,-1.5206 z"
       id="path855"
       inkscape:connector-curvature="0"
       transform="matrix(0.27443484,0,0,0.28338621,-8.3365346,-123.46134)"
       clip-path="url(#clipPath867)" />
    <path
       style="opacity:1;fill:#ececec;fill-opacity:1;stroke-width:0.07142857;stroke-linejoin:round;stroke-miterlimit:4;stroke-dasharray:0.85714286, 0.07142857;stroke-dashoffset:0.99999988"
       d="m 137.90275,527.91435 v -6.07143 h 102.85714 102.85715 v 6.07143 6.07143 H 240.75989 137.90275 Z"
       id="path857"
       inkscape:connector-curvature="0"
       transform="matrix(0.27443484,0,0,0.28338621,-8.3365346,-123.46134)"
       clip-path="url(#clipPath863)" />
  </g>
</svg>
