<svg version="1.0" xmlns="http://www.w3.org/2000/svg" viewBox="0 0 814 814">
  <path d="M385.2 188.7c1 10.8 7.5 20.9 19.8 30.6 4.1 3.2 7.6 6 7.8 6.2.1.1-3.1 2.8-7.2 5.9-13.2 10.1-20.6 21.9-20.6 32.8 0 3.6.1 3.8 3.4 3.8 3.2 0 3.3-.1 3.9-4.9 1.1-9.7 6.9-17.5 20-27.2l7.8-5.8 4.9 3.2 4.9 3.2-6.1.3c-5 .2-6.9.9-10.5 3.4-2.3 1.7-4.3 3.5-4.3 4 0 .4 6.9.8 15.4.8h15.5l2 2.9c1.2 1.6 2.1 3.4 2.1 4 0 .8-6.7 1.1-21.8 1.1h-21.9l-1.1 2.5c-.7 1.4-1.2 3-1.2 3.5 0 .6 9.8 1 24.9 1 27 0 26.1-.2 26.1 5.6 0 2.1.5 2.4 3.6 2.4h3.7l-.6-5.7c-1.4-13.4-11.1-25-33.1-39.8-20.4-13.6-28.9-23.2-30.4-34.3-.7-4.5-.9-4.7-4.1-5l-3.4-.3.5 5.8z"/>
  <path d="M449 185.4c0 5.8.9 5.6-26.1 5.6-17 0-24.9.3-24.9 1.1 0 1.5 2.1 5.3 3.4 6.1.6.4 10.4.8 21.9.8 11.4 0 20.7.3 20.7.6s-.9 1.9-2.1 3.5l-2 2.9h-15.5c-8.6 0-15.4.4-15.4.9s1.9 2.3 4.2 4c3.7 2.7 5 3.1 10.7 3.1l6.6.1-2.7 2c-3.4 2.5-3.5 3.2-.3 5.3 2.5 1.6 2.8 1.6 5.8-.3 5.8-3.5 16.6-15.7 19.3-21.5 1.4-3.1 2.8-8.1 3.1-11.1l.6-5.5h-3.7c-3.1 0-3.6.3-3.6 2.4zM145 269v6h207v-12H145v6zM489 269v6h206v-12H489v6zM54 399v99h733V300H54v99zm721.8-.3.2 86.3H65V312l355.3.2 355.2.3.3 86.2z"/>
  <path d="M316.4 359c-5.5 2.2-7.2 10.8-3.1 15.5 1.5 1.8 3.6 2.8 6.4 3.2 3.7.5 4.5.2 7.3-2.5 7.7-7.7-.5-20.3-10.6-16.2zM594 377.8v13.9l-4.7-2.3c-2.5-1.3-5.9-2.4-7.5-2.4-6.3 0-14.3 5.2-17.5 11.5-6.3 11.9-5.5 33.9 1.5 43.9 6.4 9.1 18.3 10.2 26.9 2.4l2.2-2.1.7 2.7c.6 2.5.9 2.6 7.5 2.6h6.9v-40.9c0-22.6-.3-41.2-.7-41.4-.5-.3-4.1-.8-8-1.2l-7.3-.7v14zm-2.6 24.3c2.6 2 2.6 2.2 2.6 15.5v13.6l-3 2.9c-2.3 2.3-3.7 3-6.1 2.7-5.1-.5-7.3-4.4-7.8-13.9-.5-11.5.5-16.7 3.9-20.1 3.4-3.3 6.7-3.6 10.4-.7zM180.5 370c-8.2 2-15.2 7.4-17.6 13.7-1.6 4.3-1.1 13.3 1.1 17.9 2.6 5.3 7.4 8.6 20.2 13.8 9.2 3.7 10.5 4.5 12.1 7.8 1.6 3.3 1.7 4 .3 7.1-2 4.9-4.6 6-13.1 5.5-6-.3-8.1-.9-12.3-3.5l-5.1-3.2-4.2 5-4.1 4.9 2.3 2c8 6.8 16.9 9.5 28.5 8.7 17-1 26.4-9.9 26.4-25 0-12.1-5.8-18-24.7-25.1-10.8-4.1-13.9-9.1-8.8-14.1 3.5-3.6 12.1-3.5 19.5.2l5.3 2.6 3.8-4.4c3.5-4.2 3.7-4.5 2.1-6.3-5.9-6.5-21.3-10.2-31.7-7.6zM381.3 370.8c-10.4 3.7-17.9 12.4-20.9 24.2-2.4 9.4-1.6 28.3 1.6 36.5 3 7.8 9.8 14.5 17 16.8 9.5 3.1 21.8 1.7 31.2-3.5l4.3-2.3.3-19.3.2-19.2h-27l.6 4.2c1.2 9 1 8.8 6 8.8h4.5l-.3 8.7-.3 8.7-3.7 1.4c-7.5 2.9-14.6-1-17-9.2-1.7-5.6-1.7-27 .1-31.9 4.1-11.7 15.5-15.6 24.6-8.5l2.7 2.1 4.6-4.6c4.5-4.5 4.6-4.6 2.7-6.7-6-6.6-21.4-9.7-31.2-6.2zM249.2 388.8c-11.7 4.2-18.4 15-18.6 29.7-.1 19.9 11.5 32.3 29.4 31.3 6.8-.4 15.5-3.8 17.3-6.9.8-1.3-.8-5-5-10.8-.2-.3-2.4.5-4.8 1.7-10.3 5-17.7 1.5-19.7-9.3-1.4-8.1.3-16.8 4.2-20.7 2.3-2.3 3.7-2.8 7.5-2.8 2.6 0 6.3.9 8.5 2l3.9 2 3.2-4.7c3.8-5.5 3.4-6.7-3.4-10.2-6.5-3.2-15.6-3.7-22.5-1.3zM465.7 388.4c-4.8 1.8-6.4 3.2-9.7 8.3-2.6 4.1-4 4.6-4 1.4 0-.9-.5-3.3-1.1-5.4l-1-3.8-9.7.3-9.7.3v11l3.8.3 3.7.3v34.8l-3.7.3-3.8.3v11l17.3.3 17.3.2-.3-5.7-.3-5.8-5.2-.3-5.3-.3v-8.8c0-7.8.3-9.5 2.8-14.2 1.6-3 4.3-6.4 6.2-7.7l3.5-2.4.5 5.4.5 5.3h10l1.7-12c.9-6.6 1.5-12.1 1.3-12.3-.5-.5-7.8-2.2-9.5-2.1-.8 0-3.2.6-5.3 1.3zM511 387.6c-8.2 1.6-13 3.5-13 5.3 0 2 1.9 8.2 2.9 9.3.3.4 3.3 0 6.6-.8 8.1-2.1 14.2-1.4 17.2 2.1 1.3 1.4 2.3 3.6 2.3 4.9 0 2.2-.5 2.3-7.8 2.8-9.9.7-15.2 2.3-19.8 6.1-4.4 3.7-6.4 8.1-6.4 14.1 0 5.6 1.4 9.3 4.8 13 6.8 7.2 19 7.6 28 .9l3.3-2.5 2.2 2c2.1 2 8.6 5.2 10.5 5.2.5 0 1.6-2.5 2.6-5.6 1.6-4.9 1.6-5.8.3-7.2-1.2-1.3-1.6-5.6-1.9-18.7-.3-15.8-.5-17.3-2.8-21.4-3.5-6.2-9.6-9.3-19.3-9.7-4-.1-8.3 0-9.7.2zm15.8 39c.3 4.7 0 5.4-2.8 7.8-4.2 3.5-9 3.8-12.2.9-2.5-2.2-2.4-8.5.2-10.8 2.1-1.9 7.8-3.4 12-3.2 2.3.2 2.5.7 2.8 5.3zM645.7 388.2c-5.3 1.4-13 8.7-15.7 14.9-3 7.1-3.7 17.7-1.6 25.7 2.1 8.5 6.2 14.1 12.8 17.7 4.8 2.7 6.2 3 14.3 3 9.1 0 14.5-1.6 19.9-5.8 1.9-1.4 1.9-1.5-1-6.1-1.6-2.5-3.2-4.6-3.5-4.6-.4 0-2.6.9-5 2-8.6 3.9-17.2 2-20.3-4.4-3.2-6.7-3.5-6.6 15.9-6.6H679v-7.5c0-20.9-14.5-33.3-33.3-28.3zm13.8 13.1c2 1.7 2.8 3.5 3.2 7l.6 4.7H644v-2.6c0-9.1 9.2-14.5 15.5-9.1zM299 395v6h15v35h-15v12h45v-12h-14v-47h-31v6zM145.2 534.7l.3 5.8 274.8.3 274.7.2v-12H144.9l.3 5.7z"/>
</svg>