<svg version="1" xmlns="http://www.w3.org/2000/svg" width="113.333" height="113.333" viewBox="0 0 85.000000 85.000000"><path d="M6 1c0 2.4 2.4 11.9 4 15.6 2.1 4.8 12.1 15.9 19.1 21 2.7 2 4.9 3.9 4.9 4.4 0 .4-2.5 2.7-5.6 5C14.7 57.3 8.5 66.6 6.6 79.3L5.9 84h3.4c3.3 0 3.5-.2 4.1-4.2 1.6-9.9 7.9-18.4 21-28.3l6.9-5.3 4.9 3.2c2.6 1.7 4.8 3.4 4.8 3.8 0 .5-2.7.8-6.1.8-5 0-6.8.5-10 2.7-2.1 1.6-3.9 3.1-3.9 3.5 0 .5 6.7.8 14.9.8h15l2.5 3.3c1.5 1.9 2.6 3.7 2.6 4 0 .4-9.9.7-22 .7H22l-1.3 3.2-1.4 3.3 19.6.6c10.8.4 22.2.7 25.4.8 5.2.1 5.7.3 5.7 2.4 0 3 1.8 4.7 4.8 4.7 2.4 0 2.5-.2 1.9-5.1-1-7.9-5.8-17.2-12.4-23.7C61.1 52 52.2 45 44.5 39.5 22.1 23.7 15.2 15.8 13.4 4.2c-.6-4-.8-4.2-4-4.2C7.5 0 6 .4 6 1z"/><path d="M70.6 1.6c-.3.9-.6 2.4-.6 3.5 0 1.8-.9 1.9-14.2 2-7.9.1-19.3.4-25.4.8l-11.1.6 1.4 3.2L22 15h22c12.1 0 22 .3 22 .6s-1.2 2.1-2.6 4L60.8 23H45.9c-8.2 0-14.9.3-14.9.7.1 1.9 7.6 6.3 10.9 6.4 2 .1 5 .4 6.6.8 3 .7 3 .7.8 1.9-2.8 1.5-2.9 3-.5 4.8 2.8 2.1 3.8 1.7 11-4.5 10-8.6 15.8-18.4 17.5-29.4.6-3.6.5-3.7-2.8-3.7-2.1 0-3.5.6-3.9 1.6z"/></svg>