<?xml version="1.0" standalone="no"?>
<!DOCTYPE svg PUBLIC "-//W3C//DTD SVG 20010904//EN"
 "http://www.w3.org/TR/2001/REC-SVG-20010904/DTD/svg10.dtd">
<svg version="1.0" xmlns="http://www.w3.org/2000/svg"
 width="814.000000pt" height="814.000000pt" viewBox="0 0 814.000000 814.000000"
 preserveAspectRatio="xMidYMid meet">
<metadata>
Created by potrace 1.14, written by Peter Selinger 2001-2017
</metadata>
<g transform="translate(0.000000,814.000000) scale(0.100000,-0.100000)"
fill="#000000" stroke="none">
<path d="M3834 6299 c-18 -30 17 -169 52 -210 8 -8 14 -19 14 -24 0 -10 128
-135 139 -135 4 0 16 -9 26 -20 10 -11 24 -20 31 -20 23 0 4 -27 -39 -56 -67
-44 -160 -145 -189 -205 -15 -31 -31 -82 -36 -114 -10 -61 -5 -70 40 -63 18 2
24 12 31 48 4 25 9 50 10 55 5 23 58 105 75 114 9 6 13 11 9 11 -12 0 41 48
93 83 25 17 47 33 50 36 29 33 39 32 92 -3 l53 -36 -66 0 c-60 0 -70 -3 -113
-35 -25 -20 -46 -38 -46 -40 0 -2 23 -3 50 -2 28 1 50 -2 50 -6 0 -5 5 -5 12
-1 15 10 138 11 138 2 0 -4 11 -3 25 2 20 8 29 5 48 -13 13 -12 29 -31 35 -42
10 -20 7 -20 -204 -20 -118 1 -218 -1 -223 -4 -4 -3 -16 -21 -25 -38 -12 -25
-13 -33 -4 -34 7 0 121 -1 253 -1 164 -1 242 -4 247 -12 4 -6 8 -23 8 -38 0
-25 3 -27 35 -26 26 1 35 6 37 22 4 25 -26 131 -42 152 -7 8 -9 14 -6 14 12 0
-46 73 -93 118 -52 49 -206 162 -221 162 -6 0 -10 4 -10 8 0 5 -12 15 -27 23
-16 8 -33 19 -39 24 -6 6 -26 21 -44 35 -18 14 -44 36 -57 50 -32 33 -86 110
-77 110 3 0 1 6 -5 14 -7 8 -13 29 -15 48 -3 40 -21 76 -32 66 -4 -5 -13 -3
-20 3 -8 7 -14 6 -20 -2z"/>
<path d="M4516 6301 c-4 -6 -11 -9 -16 -6 -17 10 -38 -6 -33 -26 12 -43 -3
-45 -262 -45 -187 1 -246 -2 -250 -11 -2 -7 -1 -13 3 -13 4 0 12 -12 18 -28
l11 -27 216 0 c138 0 217 -4 217 -10 -1 -5 -11 -23 -24 -38 l-23 -29 -157 0
c-86 0 -156 -4 -156 -9 0 -5 7 -9 15 -9 8 0 15 -3 15 -7 1 -24 60 -48 125 -53
67 -5 69 -6 43 -19 -36 -18 -35 -37 1 -56 29 -14 31 -14 77 21 108 82 188 198
198 286 2 21 7 41 10 46 3 5 -1 17 -8 27 -9 13 -15 15 -20 6z"/>
<path d="M1441 5500 c-5 -3 -8 -30 -7 -60 l1 -55 1031 -1 1031 -2 -1 62 -1 61
-1023 0 c-563 0 -1027 -2 -1031 -5z"/>
<path d="M4881 5500 c-5 -3 -8 -30 -9 -61 l0 -57 1032 0 1032 0 -2 57 c-1 31
-2 58 -3 61 -1 7 -2041 7 -2050 0z"/>
<path d="M519 5135 c-5 0 -2 -1968 3 -1971 9 -6 7319 -6 7325 0 7 7 5 1957 -2
1964 -5 5 -1754 7 -7326 7z m7217 -985 c0 -589 -3 -861 -11 -863 -5 -2 -1603
-3 -3550 -3 l-3540 1 -2 854 c-2 469 0 857 3 862 3 5 1498 9 3552 9 l3548 0 0
-860z"/>
<path d="M3116 4519 c-35 -41 -35 -96 -1 -133 13 -14 28 -26 32 -27 4 0 20 -2
34 -4 15 -2 40 5 57 15 58 36 50 158 -12 174 -51 14 -84 6 -110 -25z"/>
<path d="M5920 4476 c-4 -12 -5 -23 -1 -26 8 -6 7 -42 -1 -55 -3 -6 -2 -19 2
-30 4 -11 4 -32 -1 -47 -4 -14 -5 -29 -2 -32 8 -8 10 -66 2 -66 -4 0 -24 9
-44 21 -35 21 -102 31 -111 17 -3 -4 -11 -5 -19 -1 -8 3 -15 0 -15 -6 0 -6 -6
-11 -14 -11 -17 0 -66 -45 -87 -80 -33 -53 -46 -115 -46 -215 -1 -187 61 -295
177 -310 43 -6 107 16 139 47 17 17 32 25 32 19 5 -45 14 -50 87 -48 l67 2 0
413 c0 269 -3 412 -10 413 -5 1 -13 1 -17 0 -4 0 -35 3 -69 8 -56 7 -61 6 -69
-13z m-26 -361 c10 -8 20 -29 23 -47 8 -58 8 -140 1 -144 -4 -3 -4 -15 1 -27
5 -12 5 -31 1 -42 -4 -11 -6 -23 -4 -26 1 -3 -8 -18 -22 -34 -13 -15 -24 -25
-24 -20 0 4 -6 2 -14 -4 -9 -8 -22 -8 -44 0 -42 14 -62 68 -62 167 0 133 29
192 93 192 17 0 40 -7 51 -15z"/>
<path d="M1810 4438 c-134 -23 -211 -101 -212 -212 0 -53 2 -65 19 -106 12
-26 83 -100 83 -85 0 4 8 1 18 -7 9 -8 44 -25 77 -38 102 -39 143 -62 150 -84
14 -45 10 -71 -15 -99 -36 -40 -112 -47 -193 -17 -32 12 -61 28 -64 36 -8 21
-36 17 -53 -7 -8 -11 -25 -32 -38 -46 l-23 -25 22 -24 c62 -66 233 -107 339
-82 19 5 44 11 55 13 11 3 31 14 45 25 14 12 33 23 42 26 10 4 20 15 23 25 4
10 11 19 17 19 6 0 9 3 6 6 -4 3 0 21 8 39 16 39 19 161 4 170 -6 4 -8 10 -6
14 3 4 -12 25 -32 48 -43 47 -81 68 -223 122 -81 32 -100 62 -74 123 21 51
158 43 237 -14 14 -10 22 -6 52 26 52 54 47 73 -27 115 -69 39 -157 53 -237
39z"/>
<path d="M3840 4439 c0 -3 -6 -6 -12 -7 -51 -3 -122 -43 -167 -91 -33 -37 -78
-138 -87 -196 -18 -120 -2 -267 36 -345 10 -19 18 -38 19 -43 2 -21 89 -89
123 -96 4 -1 22 -8 40 -15 41 -16 131 -13 213 8 32 8 85 31 85 37 0 4 9 9 19
12 19 4 20 15 20 195 0 138 -4 191 -12 194 -7 2 -66 4 -132 4 l-120 -1 2 -33
c0 -18 4 -48 7 -66 6 -31 8 -32 50 -30 l45 2 -1 -90 c-1 -85 -3 -90 -25 -99
-45 -17 -108 -11 -135 14 -53 46 -63 87 -62 257 0 102 3 120 25 164 32 65 66
89 128 92 40 2 58 -3 95 -26 41 -26 47 -28 58 -14 7 9 26 29 41 45 23 24 26
33 17 49 -6 11 -17 20 -25 20 -8 0 -15 4 -15 8 0 9 -55 35 -100 48 -30 8 -130
11 -130 3z"/>
<path d="M2548 4265 c-1 -2 -20 -6 -42 -9 -93 -15 -173 -91 -207 -196 -8 -25
-14 -81 -13 -125 0 -90 30 -173 81 -224 70 -70 180 -93 293 -61 25 6 47 15 50
19 3 3 17 14 33 24 l27 18 -30 44 c-16 24 -30 48 -30 54 0 16 -11 14 -47 -9
-39 -24 -109 -31 -143 -14 -42 20 -65 79 -64 161 1 154 68 210 192 161 29 -11
54 -19 56 -17 1 2 17 25 34 50 29 44 30 48 14 62 -26 23 -73 44 -117 52 -55
11 -83 14 -87 10z"/>
<path d="M4707 4264 c-1 -2 -19 -4 -40 -6 -20 -1 -37 -6 -37 -10 0 -4 -6 -8
-14 -8 -19 0 -76 -60 -88 -93 -10 -27 -19 -29 -25 -4 -1 7 -5 28 -9 47 -3 19
-10 40 -14 45 -7 8 -75 11 -176 6 -19 -1 -21 -7 -20 -56 1 -56 4 -60 47 -56 9
1 18 -4 21 -11 2 -7 4 -87 4 -178 l-1 -165 -35 -5 c-35 -5 -35 -6 -34 -50 1
-25 2 -50 3 -56 1 -7 54 -11 169 -10 l167 1 3 57 3 57 -57 3 -57 3 1 89 c1 49
6 94 12 100 5 5 10 16 10 23 0 35 74 113 107 113 5 0 8 -19 7 -42 -1 -24 1
-48 3 -53 3 -10 89 -12 98 -3 5 5 12 50 20 128 4 36 8 76 10 90 4 23 0 27 -35
37 -22 5 -41 9 -43 7z"/>
<path d="M5114 4261 c-2 -3 -17 -6 -32 -7 -33 -3 -46 -6 -94 -23 -35 -11 -37
-14 -26 -34 6 -12 10 -22 8 -22 -2 0 2 -17 9 -37 14 -42 14 -42 40 -28 41 22
146 28 183 10 27 -13 47 -50 46 -83 -1 -14 -8 -17 -40 -14 -21 2 -38 1 -38 -2
0 -3 -17 -5 -38 -5 -21 1 -56 -5 -77 -13 -22 -8 -45 -15 -51 -15 -12 -2 -77
-69 -84 -89 -3 -8 -5 -46 -5 -85 0 -61 4 -76 27 -106 66 -86 207 -97 304 -23
32 25 33 25 47 5 16 -24 65 -50 92 -50 15 0 24 10 32 33 23 67 24 75 7 92 -14
14 -17 42 -19 183 -1 138 -5 174 -20 208 -21 48 -66 82 -127 96 -45 11 -136
16 -144 9z m136 -386 c0 -25 -7 -56 -16 -70 -15 -24 -61 -45 -95 -45 -30 0
-59 36 -59 73 1 56 37 83 117 86 l53 2 0 -46z"/>
<path d="M6518 4264 c-2 -1 -23 -4 -46 -5 -24 -2 -45 -6 -48 -11 -3 -4 -21
-15 -41 -25 -81 -38 -134 -157 -129 -291 7 -217 135 -320 358 -289 37 5 121
48 133 67 3 6 -3 23 -14 39 -12 16 -21 34 -21 39 0 17 -23 19 -53 4 -15 -8
-36 -15 -45 -17 -9 -2 -17 -4 -17 -5 0 -8 -55 -8 -86 0 -42 12 -80 55 -85 99
l-3 27 170 -1 c144 0 172 2 178 15 11 22 3 134 -13 175 -4 11 -12 32 -18 47
-13 36 -65 87 -105 104 -34 15 -110 34 -115 28z m33 -128 c29 -8 55 -46 62
-93 5 -28 2 -32 -21 -37 -15 -2 -61 -4 -102 -3 -82 2 -83 3 -61 75 1 1 0 3 -1
5 -5 4 36 43 56 54 20 11 24 11 67 -1z"/>
<path d="M2971 4184 l-2 -61 70 2 c69 1 71 0 80 -27 6 -17 6 -30 0 -33 -5 -4
-6 -11 -3 -17 8 -12 11 -118 4 -118 -3 0 -4 -17 -3 -37 1 -21 2 -38 3 -38 1 0
2 -18 3 -40 l2 -41 -60 -1 c-110 -1 -101 4 -100 -60 l2 -58 228 0 229 0 1 49
c1 26 -4 53 -11 60 -7 7 -35 11 -67 10 -34 -1 -57 3 -60 10 -2 6 -3 109 -3
229 1 132 -3 221 -9 225 -5 3 -75 6 -156 6 l-146 1 -2 -61z"/>
<path d="M1452 2849 c-13 -5 -17 -19 -18 -63 -1 -31 1 -56 5 -57 8 -1 5450 -1
5477 0 19 1 21 6 19 54 -2 28 -3 57 -4 62 -1 11 -5448 15 -5479 4z"/>
</g>
</svg>
