<svg version="1.0" xmlns="http://www.w3.org/2000/svg" width="1085.3" height="1085.3" viewBox="0 0 814 814">
  <path d="M383 184c-1 3 2 17 6 21l1 2a85 85 0 0 0 20 18c2 0 0 3-4 6-7 4-16 14-19 20l-4 11c-1 7 0 8 4 7 2 0 3-1 3-5l1-5c1-3 6-11 8-12l1-1c-2 0 4-5 9-8l5-4c3-3 4-3 9 0l5 4h-6c-6 0-7 0-11 4l-5 4h27c2-1 3 0 5 1l4 5c1 2 0 2-21 2h-22l-2 4c-2 2-2 3-1 3h25l25 1 1 4c0 3 0 3 4 3 2 0 3-1 3-2a41 41 0 0 0-5-17c2 0-4-7-9-12a139 139 0 0 0-23-17l-3-2-4-2-4-4-6-5-7-11-1-1-1-5c-1-4-2-8-4-7h-4z"/>
  <path d="m452 184-2 1c-2-1-4 0-3 2 1 4-1 5-27 5-18-1-24 0-24 1v1l2 3 1 3h21l22 1-2 3-3 3h-15l-16 1 2 1 1 1c0 2 6 5 13 5 6 1 6 1 4 2-4 2-4 4 0 6 3 1 3 1 8-3 10-8 18-19 19-28l1-5v-2c-1-2-2-2-2-1zm-308 80-1 6 1 6h206v-12H144zm344 0-1 6v6h207l-1-6v-6H488zM52 301v197h733l-1-197H52zm722 98-1 86-355 1H64l-1-86 1-86 355-1h355v86z"/>
  <path d="M312 362c-4 4-4 10 0 13l3 3 3 1 6-2c6-4 5-16-1-17-6-2-9-1-11 2zm280 4v26l-5-2c-3-2-10-3-11-2h-2l-1 1-1 1c-2 0-7 5-9 8-3 5-5 12-5 22 0 18 6 29 18 31 4 0 11-2 14-5l3-2c1 4 2 5 9 5h7v-42l-1-41h-2l-7-1c-6-1-6 0-7 1zm-3 37 3 4v24l-3 4-2 2h-6c-4-2-6-7-6-17 0-13 3-19 9-19l5 2zm-408-33c-13 2-21 10-21 21 0 6 0 7 2 11 1 3 8 10 8 9h2l8 4c10 4 14 6 15 8 1 5 1 7-2 10-4 4-11 5-19 2l-7-4c0-2-3-1-5 1l-4 5-2 2 2 3c6 6 23 10 34 8l5-2 5-2 4-3 2-2 2-2 1-1 1-4v-17l-1-1-3-5c-4-4-8-7-22-12-8-3-10-6-8-12 3-5 16-5 24 1 2 1 2 1 5-2 6-6 5-8-2-12s-16-5-24-4zm203 0-1 1c-5 0-12 4-17 9-3 4-8 14-9 19a68 68 0 0 0 6 39c0 2 9 9 12 10l4 1a42 42 0 0 0 30-4l2-1c2-1 2-2 2-20l-1-19-13-1-12 1v9c1 4 1 4 5 3h5v9c0 9 0 9-3 10-4 2-10 1-13-1-5-5-6-9-6-26 0-10 0-12 2-16 3-7 7-9 13-10 4 0 6 1 9 3 5 3 5 3 6 1l4-4c3-2 3-3 2-5l-2-2-2-1-10-5h-13zm-129 17-4 1c-10 2-18 9-21 20l-1 12c0 9 3 18 8 23 7 7 18 9 29 6l5-2 3-2 3-2-3-5-3-5c0-1-1-1-5 1s-11 3-14 1c-4-2-6-8-6-16 0-15 6-21 19-16l5 2 4-5c3-5 3-5 1-6-2-3-7-5-12-6l-8-1zm216 1h-4l-4 1-1 1c-2 0-8 6-9 9s-2 3-3 1a107 107 0 0 0-2-9c-1-1-7-2-18-1-1 0-2 1-2 5 1 6 1 7 5 6l2 1 1 18v17h-4c-3 1-3 1-3 5v6l17 1h17v-12h-11v-9l1-10 1-3c0-3 7-11 11-11v4l1 6h10l2-13 1-9c0-2 0-3-4-4h-4zm40 0-3 1-9 2c-4 1-4 1-3 3l1 2 1 4c1 4 1 4 4 3 4-2 15-3 18-1 3 1 5 5 5 8 0 2-1 2-4 2h-8l-7 2-6 1-8 9v9c0 6 0 7 2 10 7 9 21 10 31 2 3-2 3-2 4 0 2 2 7 5 10 5l3-3c2-7 2-8 0-10l-1-18-2-21c-3-4-7-8-13-9-5-1-14-2-15-1zm14 38-2 8c-1 2-6 4-9 4s-6-4-6-7c0-6 4-9 12-9h5v4zm127-38h-5l-5 1-4 3c-8 4-13 15-13 29 1 22 14 32 36 29 4-1 12-5 13-7 1-1 0-2-1-4l-2-4c0-1-2-2-5 0l-5 2h-10c-4-1-8-5-9-10v-3l17 1c14 0 17-1 18-2a40 40 0 0 0-3-22c-2-4-7-9-11-11l-11-2zm3 12c3 1 6 5 6 10 1 3 0 3-2 3l-10 1c-8 0-8-1-6-8-1-1 3-5 5-6h7zm-358-4v6h7c7-1 7 0 8 2v33h-6c-11 0-10-1-10 6l1 6h45v-5c1-3 0-6-1-6l-6-1-6-1a431 431 0 0 1-2-46h-30v6zM145 529c-1 1-2 2-2 6l1 6h548c2 0 2 0 2-5l-1-6c0-2-545-2-548-1z"/>
</svg>