<svg version="1.0" xmlns="http://www.w3.org/2000/svg" width="1085.333" height="1085.333" viewBox="0 0 814 814"><path d="M383.4 184.1c-1.8 3 1.7 16.9 5.2 21 .8.8 1.4 1.9 1.4 2.4 0 1 12.8 13.5 13.9 13.5.4 0 1.6.9 2.6 2s2.4 2 3.1 2c2.3 0 .4 2.7-3.9 5.6-6.7 4.4-16 14.5-18.9 20.5-1.5 3.1-3.1 8.2-3.6 11.4-1 6.1-.5 7 4 6.3 1.8-.2 2.4-1.2 3.1-4.8.4-2.5.9-5 1-5.5.5-2.3 5.8-10.5 7.5-11.4.9-.6 1.3-1.1.9-1.1-1.2 0 4.1-4.8 9.3-8.3 2.5-1.7 4.7-3.3 5-3.6 2.9-3.3 3.9-3.2 9.2.3l5.3 3.6h-6.6c-6 0-7 .3-11.3 3.5-2.5 2-4.6 3.8-4.6 4 0 .2 2.3.3 5 .2 2.8-.1 5 .2 5 .6 0 .5.5.5 1.2.1 1.5-1 13.8-1.1 13.8-.2 0 .4 1.1.3 2.5-.2 2-.8 2.9-.5 4.8 1.3 1.3 1.2 2.9 3.1 3.5 4.2 1 2 .7 2-20.4 2-11.8-.1-21.8.1-22.3.4-.4.3-1.6 2.1-2.5 3.8-1.2 2.5-1.3 3.3-.4 3.4.7 0 12.1.1 25.3.1 16.4.1 24.2.4 24.7 1.2.4.6.8 2.3.8 3.8 0 2.5.3 2.7 3.5 2.6 2.6-.1 3.5-.6 3.7-2.2.4-2.5-2.6-13.1-4.2-15.2-.7-.8-.9-1.4-.6-1.4 1.2 0-4.6-7.3-9.3-11.8-5.2-4.9-20.6-16.2-22.1-16.2-.6 0-1-.4-1-.8 0-.5-1.2-1.5-2.7-2.3-1.6-.8-3.3-1.9-3.9-2.4-.6-.6-2.6-2.1-4.4-3.5-1.8-1.4-4.4-3.6-5.7-5-3.2-3.3-8.6-11-7.7-11 .3 0 .1-.6-.5-1.4-.7-.8-1.3-2.9-1.5-4.8-.3-4-2.1-7.6-3.2-6.6-.4.5-1.3.3-2-.3-.8-.7-1.4-.6-2 .2z"/><path d="M451.6 183.9c-.4.6-1.1.9-1.6.6-1.7-1-3.8.6-3.3 2.6 1.2 4.3-.3 4.5-26.2 4.5-18.7-.1-24.6.2-25 1.1-.2.7-.1 1.3.3 1.3s1.2 1.2 1.8 2.8l1.1 2.7h21.6c13.8 0 21.7.4 21.7 1-.1.5-1.1 2.3-2.4 3.8l-2.3 2.9h-15.7c-8.6 0-15.6.4-15.6.9s.7.9 1.5.9 1.5.3 1.5.7c.1 2.4 6 4.8 12.5 5.3 6.7.5 6.9.6 4.3 1.9-3.6 1.8-3.5 3.7.1 5.6 2.9 1.4 3.1 1.4 7.7-2.1 10.8-8.2 18.8-19.8 19.8-28.6.2-2.1.7-4.1 1-4.6.3-.5-.1-1.7-.8-2.7-.9-1.3-1.5-1.5-2-.6zM144.1 264c-.5.3-.8 3-.7 6l.1 5.5 103.1.1 103.1.2-.1-6.2-.1-6.1H247.2c-56.3 0-102.7.2-103.1.5zm344 0c-.5.3-.8 3-.9 6.1v5.7h206.4l-.2-5.7c-.1-3.1-.2-5.8-.3-6.1-.1-.7-204.1-.7-205 0zM51.9 300.5c-.5 0-.2 196.8.3 197.1.9.6 731.9.6 732.5 0 .7-.7.5-195.7-.2-196.4-.5-.5-175.4-.7-732.6-.7zM773.6 399c0 58.9-.3 86.1-1.1 86.3-.5.2-160.3.3-355 .3l-354-.1-.2-85.4c-.2-46.9 0-85.7.3-86.2s149.8-.9 355.2-.9h354.8v86z"/><path d="M311.6 362.1c-3.5 4.1-3.5 9.6-.1 13.3 1.3 1.4 2.8 2.6 3.2 2.7.4 0 2 .2 3.4.4 1.5.2 4-.5 5.7-1.5 5.8-3.6 5-15.8-1.2-17.4-5.1-1.4-8.4-.6-11 2.5zm280.4 4.3c-.4 1.2-.5 2.3-.1 2.6.8.6.7 4.2-.1 5.5-.3.6-.2 1.9.2 3s.4 3.2-.1 4.7c-.4 1.4-.5 2.9-.2 3.2.8.8 1 6.6.2 6.6-.4 0-2.4-.9-4.4-2.1-3.5-2.1-10.2-3.1-11.1-1.7-.3.4-1.1.5-1.9.1-.8-.3-1.5 0-1.5.6s-.6 1.1-1.4 1.1c-1.7 0-6.6 4.5-8.7 8-3.3 5.3-4.6 11.5-4.6 21.5-.1 18.7 6.1 29.5 17.7 31 4.3.6 10.7-1.6 13.9-4.7 1.7-1.7 3.2-2.5 3.2-1.9.5 4.5 1.4 5 8.7 4.8l6.7-.2v-41.3c0-26.9-.3-41.2-1-41.3-.5-.1-1.3-.1-1.7 0-.4 0-3.5-.3-6.9-.8-5.6-.7-6.1-.6-6.9 1.3zm-2.6 36.1c1 .8 2 2.9 2.3 4.7.8 5.8.8 14 .1 14.4-.4.3-.4 1.5.1 2.7.5 1.2.5 3.1.1 4.2s-.6 2.3-.4 2.6c.1.3-.8 1.8-2.2 3.4-1.3 1.5-2.4 2.5-2.4 2 0-.4-.6-.2-1.4.4-.9.8-2.2.8-4.4 0-4.2-1.4-6.2-6.8-6.2-16.7 0-13.3 2.9-19.2 9.3-19.2 1.7 0 4 .7 5.1 1.5zM181 370.2c-13.4 2.3-21.1 10.1-21.2 21.2 0 5.3.2 6.5 1.9 10.6 1.2 2.6 8.3 10 8.3 8.5 0-.4.8-.1 1.8.7.9.8 4.4 2.5 7.7 3.8 10.2 3.9 14.3 6.2 15 8.4 1.4 4.5 1 7.1-1.5 9.9-3.6 4-11.2 4.7-19.3 1.7-3.2-1.2-6.1-2.8-6.4-3.6-.8-2.1-3.6-1.7-5.3.7-.8 1.1-2.5 3.2-3.8 4.6l-2.3 2.5 2.2 2.4c6.2 6.6 23.3 10.7 33.9 8.2 1.9-.5 4.4-1.1 5.5-1.3 1.1-.3 3.1-1.4 4.5-2.5 1.4-1.2 3.3-2.3 4.2-2.6 1-.4 2-1.5 2.3-2.5.4-1 1.1-1.9 1.7-1.9.6 0 .9-.3.6-.6-.4-.3 0-2.1.8-3.9 1.6-3.9 1.9-16.1.4-17-.6-.4-.8-1-.6-1.4.3-.4-1.2-2.5-3.2-4.8-4.3-4.7-8.1-6.8-22.3-12.2-8.1-3.2-10-6.2-7.4-12.3 2.1-5.1 15.8-4.3 23.7 1.4 1.4 1 2.2.6 5.2-2.6 5.2-5.4 4.7-7.3-2.7-11.5-6.9-3.9-15.7-5.3-23.7-3.9zm203-.1c0 .3-.6.6-1.2.7-5.1.3-12.2 4.3-16.7 9.1-3.3 3.7-7.8 13.8-8.7 19.6-1.8 12-.2 26.7 3.6 34.5 1 1.9 1.8 3.8 1.9 4.3.2 2.1 8.9 8.9 12.3 9.6.4.1 2.2.8 4 1.5 4.1 1.6 13.1 1.3 21.3-.8 3.2-.8 8.5-3.1 8.5-3.7 0-.4.9-.9 1.9-1.2 1.9-.4 2-1.5 2-19.5 0-13.8-.4-19.1-1.2-19.4-.7-.2-6.6-.4-13.2-.4l-12 .1.2 3.3c0 1.8.4 4.8.7 6.6.6 3.1.8 3.2 5 3l4.5-.2-.1 9c-.1 8.5-.3 9-2.5 9.9-4.5 1.7-10.8 1.1-13.5-1.4-5.3-4.6-6.3-8.7-6.2-25.7 0-10.2.3-12 2.5-16.4 3.2-6.5 6.6-8.9 12.8-9.2 4-.2 5.8.3 9.5 2.6 4.1 2.6 4.7 2.8 5.8 1.4.7-.9 2.6-2.9 4.1-4.5 2.3-2.4 2.6-3.3 1.7-4.9-.6-1.1-1.7-2-2.5-2s-1.5-.4-1.5-.8c0-.9-5.5-3.5-10-4.8-3-.8-13-1.1-13-.3zm-129.2 17.4c-.1.2-2 .6-4.2.9-9.3 1.5-17.3 9.1-20.7 19.6-.8 2.5-1.4 8.1-1.3 12.5 0 9 3 17.3 8.1 22.4 7 7 18 9.3 29.3 6.1 2.5-.6 4.7-1.5 5-1.9.3-.3 1.7-1.4 3.3-2.4l2.7-1.8-3-4.4c-1.6-2.4-3-4.8-3-5.4 0-1.6-1.1-1.4-4.7.9-3.9 2.4-10.9 3.1-14.3 1.4-4.2-2-6.5-7.9-6.4-16.1.1-15.4 6.8-21 19.2-16.1 2.9 1.1 5.4 1.9 5.6 1.7.1-.2 1.7-2.5 3.4-5 2.9-4.4 3-4.8 1.4-6.2-2.6-2.3-7.3-4.4-11.7-5.2-5.5-1.1-8.3-1.4-8.7-1zm215.9.1c-.1.2-1.9.4-4 .6-2 .1-3.7.6-3.7 1s-.6.8-1.4.8c-1.9 0-7.6 6-8.8 9.3-1 2.7-1.9 2.9-2.5.4-.1-.7-.5-2.8-.9-4.7-.3-1.9-1-4-1.4-4.5-.7-.8-7.5-1.1-17.6-.6-1.9.1-2.1.7-2 5.6.1 5.6.4 6 4.7 5.6.9-.1 1.8.4 2.1 1.1.2.7.4 8.7.4 17.8l-.1 16.5-3.5.5c-3.5.5-3.5.6-3.4 5 .1 2.5.2 5 .3 5.6.1.7 5.4 1.1 16.9 1l16.7-.1.3-5.7.3-5.7-5.7-.3-5.7-.3.1-8.9c.1-4.9.6-9.4 1.2-10 .5-.5 1-1.6 1-2.3 0-3.5 7.4-11.3 10.7-11.3.5 0 .8 1.9.7 4.2-.1 2.4.1 4.8.3 5.3.3 1 8.9 1.2 9.8.3.5-.5 1.2-5 2-12.8.4-3.6.8-7.6 1-9 .4-2.3 0-2.7-3.5-3.7-2.2-.5-4.1-.9-4.3-.7zm40.7.3c-.2.3-1.7.6-3.2.7-3.3.3-4.6.6-9.4 2.3-3.5 1.1-3.7 1.4-2.6 3.4.6 1.2 1 2.2.8 2.2-.2 0 .2 1.7.9 3.7 1.4 4.2 1.4 4.2 4 2.8 4.1-2.2 14.6-2.8 18.3-1 2.7 1.3 4.7 5 4.6 8.3-.1 1.4-.8 1.7-4 1.4-2.1-.2-3.8-.1-3.8.2 0 .3-1.7.5-3.8.5-2.1-.1-5.6.5-7.7 1.3-2.2.8-4.5 1.5-5.1 1.5-1.2.2-7.7 6.9-8.4 8.9-.3.8-.5 4.6-.5 8.5 0 6.1.4 7.6 2.7 10.6 6.6 8.6 20.7 9.7 30.4 2.3 3.2-2.5 3.3-2.5 4.7-.5 1.6 2.4 6.5 5 9.2 5 1.5 0 2.4-1 3.2-3.3 2.3-6.7 2.4-7.5.7-9.2-1.4-1.4-1.7-4.2-1.9-18.3-.1-13.8-.5-17.4-2-20.8-2.1-4.8-6.6-8.2-12.7-9.6-4.5-1.1-13.6-1.6-14.4-.9zm13.6 38.6c0 2.5-.7 5.6-1.6 7-1.5 2.4-6.1 4.5-9.5 4.5-3 0-5.9-3.6-5.9-7.3.1-5.6 3.7-8.3 11.7-8.6l5.3-.2v4.6zm126.8-38.9c-.2.1-2.3.4-4.6.5-2.4.2-4.5.6-4.8 1.1-.3.4-2.1 1.5-4.1 2.5-8.1 3.8-13.4 15.7-12.9 29.1.7 21.7 13.5 32 35.8 28.9 3.7-.5 12.1-4.8 13.3-6.7.3-.6-.3-2.3-1.4-3.9-1.2-1.6-2.1-3.4-2.1-3.9 0-1.7-2.3-1.9-5.3-.4-1.5.8-3.6 1.5-4.5 1.7-.9.2-1.7.4-1.7.5 0 .8-5.5.8-8.6 0-4.2-1.2-8-5.5-8.5-9.9l-.3-2.7 17 .1c14.4 0 17.2-.2 17.8-1.5 1.1-2.2.3-13.4-1.3-17.5-.4-1.1-1.2-3.2-1.8-4.7-1.3-3.6-6.5-8.7-10.5-10.4-3.4-1.5-11-3.4-11.5-2.8zm3.3 12.8c2.9.8 5.5 4.6 6.2 9.3.5 2.8.2 3.2-2.1 3.7-1.5.2-6.1.4-10.2.3-8.2-.2-8.3-.3-6.1-7.5.1-.1 0-.3-.1-.5-.5-.4 3.6-4.3 5.6-5.4 2-1.1 2.4-1.1 6.7.1zm-358-4.8-.2 6.1 7-.2c6.9-.1 7.1 0 8 2.7.6 1.7.6 3 0 3.3-.5.4-.6 1.1-.3 1.7.8 1.2 1.1 11.8.4 11.8-.3 0-.4 1.7-.3 3.7.1 2.1.2 3.8.3 3.8.1 0 .2 1.8.3 4l.2 4.1-6 .1c-11 .1-10.1-.4-10 6l.2 5.8h45.7l.1-4.9c.1-2.6-.4-5.3-1.1-6-.7-.7-3.5-1.1-6.7-1-3.4.1-5.7-.3-6-1-.2-.6-.3-10.9-.3-22.9.1-13.2-.3-22.1-.9-22.5-.5-.3-7.5-.6-15.6-.6l-14.6-.1-.2 6.1zM145.2 529.1c-1.3.5-1.7 1.9-1.8 6.3-.1 3.1.1 5.6.5 5.7.8.1 545 .1 547.7 0 1.9-.1 2.1-.6 1.9-5.4-.2-2.8-.3-5.7-.4-6.2-.1-1.1-544.8-1.5-547.9-.4z"/></svg>